<svg version="1.2" xmlns="http://www.w3.org/2000/svg" viewBox="0 0 1558 496" width="1558" height="496">
	<title>logo-svg</title>
	<style>
		.s0 { fill: #e31e25 } 
		.s1 { fill: #ffffff } 
		.s2 { fill: #27447c } 
	</style>
	<g id="Layer">
		<path id="Layer" class="s0" d="m995.1 470c26.5-0.4 51.6-10.7 69.8-29.3 18.6-18.5 28.9-43.6 28.9-69.8v-239.1c0-26.5-10.3-51.6-28.5-70.5-18.6-18.6-43.7-29.3-70.2-29.3h-240.3c-26.5 0.4-51.6 10.7-69.8 29.3-18.6 18.9-28.9 44-28.9 70.5v239.5c0.3 54.3 44.3 98.3 98.7 98.7"/>
		<path id="Layer" class="s1" d="m927 264.6c-9.2 30.9 5.9 62 37.9 49.5-9.3 22.4-24.8 55.8-24.8 90.5 0 0 0 23.4 17.2 29.3 0 0 24 5.8 18.9-15.5-3.8-13.4-4.8-27.1-3.1-40.9 5.8-28.6 14.7-56.5 26.5-83.3 0 0 36.8-76.8 58.1-112.5 0 0 8.9-18.3-9.3-18.3-5.5 0-10.7 2.8-14.1 7.3l-51.9 92.5c-7.9 14.5-15.5 18.9-21.3 18.9-13.1 0-10.4-20.9-8.3-28.5 5.9-25.8 15.2-50.6 27.5-74.4 9.3-20.2-9.3-22-9.3-22-11.7-3.1-20.6 16.2-20.6 16.2l-20.6 42c-13.5 23.4-28.2 45.8-44 67.4 0 0-2.8 3.5-4.9 2.1-2-1.7-1-5.2-1-5.2 3.5-28.5 9.3-56.7 17.2-84.6 0.3-1.7 0.7-3.1 0.7-4.8 0.3-3.8-0.7-7.6-3.1-10.4-2.4-3-5.8-4.7-9.6-4.7-9.3-1.1-13.7 3.3-22.1 13.3-18.2 22.4-39.5 56.1-49.8 71.2-1.1 1.8-3.1 1.5-3.1-0.9 0-6.9 24-81.2 24-81.2 0 0 2.9-10.4-5.4-13.8 0 0-12.8-7.9-23 7.6l-49.6 67.4c-3.7 5.1-5.8 3.5-5.8 3.5v-4.6l7.9-44c6.2-33.7-5.5-35.4-13-36.8-5.5 0-11.4 1.7-16.2 4.8-15.5 7.6-27.2 38.2-27.2 38.2 0 0-3.4 11 4.1 15.5 2.5 1.4 5.2 2.4 8 2 10.9-0.6 13-20.9 20.9-20.9 1.4 0 1.4 1.7 1.4 2l-25.4 107c-1.8 6.2 0.9 12.8 6.2 16.2 3.4 2 7.2 2.4 10.9 1.8 3.5-1.1 6.6-3.5 8.7-6.6l9.3-14.5c13.3-23.7 38-57.8 40.5-57.8 1 0 1.3 0 1.3 1.1l-9.2 62.9c-1 5.5 2.1 11.4 7.2 13.8 4.8 1.7 10 1.3 14.4-1.1 5.2-4.1 9.7-9.2 12.7-15.1 5.3-8.3 30-37.4 45.1-64.3 1.1-1.8 2.1 0 1.7 1.1-3.1 14-5.5 51.6-5.8 60.8-0.7 18.3 13.4 20.3 13.8 20.3 9.2 0.7 18.2-3.5 23.3-11"/>
		<path id="Layer" fill-rule="evenodd" class="s2" d="m187.1 306.2h-27.5v-61.6c0.4-6.9-1-13.8-4.1-19.6-3.1-4.5-8.6-7.2-14.1-6.5-4.8 0-9.3 1-13 3.4-4.2 2.8-7.6 6.6-10 10.7v73.6h-27.5v-111.8h15.5l10.2 15.2c2.7-2.4 5.6-4.6 8.3-6.6 2.8-1.8 5.5-3.1 8.6-4.5q4.6-2 9.3-3.1c3.1-0.7 6.5-1 10-1 3.8 0 7.5 0.3 10.9 1.4 2.8 1 5.6 2 8.3 3.8 2.1 1.6 4.1 3.8 5.9 5.8 2 2.7 3.4 5.2 4.7 8 2.1-2.2 4.5-4.6 7.3-6.6 2.7-2.1 5.8-4.1 9.3-5.8q4.6-3.2 10.3-5.2c4.1-1.1 8.2-1.7 12.7-1.7 5.5 0 10.6 1.3 15.5 3.7 4.4 2.8 8.2 6.3 10.6 10.3 2.7 5.3 4.9 10.4 5.8 16.2 1.4 6.5 2.1 13.1 2.1 20v61.9h-27.8v-61.6c0.6-6.9-0.7-13.8-4.1-19.6-3.1-4.5-8.3-7.2-13.8-6.5-4.5 0-9 1-13 3.4-4.2 2.8-8 6.2-10.4 10.7m158.8 61.3c-3.8 3.8-8.5 6.9-13.4 8.9-6.4 2.4-13.3 3.8-20.2 3.4-4.9 0.4-10-0.7-14.4-2.4q-6.3-2.6-11.4-7.2-4.6-5.2-7.3-11.4c-1.7-4.4-2.4-9.3-2.4-14 0-20.7 16.2-34.2 42-34.2h27.5v-6.2c0-4-2.4-7.5-5.8-9.2-5.5-2.4-11.7-3.8-17.9-3.5-6.9 0-13.8 1.1-20.3 2.4q-7.7 2.1-15.5 5.2l-3.1-23c1.7-1.1 4.2-1.7 7.3-2.8 2.7-1 6.2-1.7 9.3-2.7 3.1-0.7 7.1-1.4 11.3-2.1 4.1-0.7 8.5-0.7 13.1-0.7 12.7-1 25.8 3.1 35.4 11.4 8.6 8.9 12.7 21 12 33v67.4h-19.6zm0-38.5h-24.4c-5.1-0.4-10 1-14.5 3.8-2.7 2.7-4.4 6.5-4.4 10.6 0 3.8 1.3 7.3 4.1 10 3.1 2.4 7.2 3.8 11.4 3.4 3 0 6.1-0.3 9.2-1.3 2.8-0.7 5.5-1.8 7.9-3.1q3.6-2.6 6.3-5.2c2-2 3.3-4.1 4.7-6.2zm110.8-6.9l50.5 57.5h-34.3l-46.9-56.8v56.8h-27.1v-153.1h27.1v96.3l41.6-56.3h33.4zm110.3 33.6c4.2 0 8.7-0.3 12.8-1.4 3.8-0.6 7.6-1.7 11-3.1 3.1-1 6.2-2.4 8.9-4 1.4-0.8 2.8-1.8 4.2-2.8l5.1 24.4c-5.8 3.1-12 5.8-18.5 8-7.6 2-15.5 3.1-23.5 3.1-8.5 0-17.1-1.5-25.4-4.2-6.6-2.4-13-6.2-18.2-11.4-5.1-4.8-8.9-11-11.3-17.5-3.1-6.9-4.5-14.5-4.9-22.4 0-7.2 1.1-14.5 3.5-21.3 2.4-6.9 5.8-12.8 10.6-18.3 4.5-5.1 10.4-9.2 16.9-12 14.8-5.8 31.6-5.8 46.4 0 6.2 2.4 11.3 6.6 15.8 11.3 4.1 4.9 7.2 10.4 9.3 16.2 1.7 6.2 2.8 12.7 2.8 19.3 0 1.7 0 3.8 0 5.8-0.4 2.1-0.7 4.2-1.1 5.9h-76q0.5 5.7 3.1 10.3c1.4 3.1 3.8 5.9 6.5 7.9 2.8 2.4 5.9 4.2 9.7 4.8q5.6 2.1 12.3 2.1zm-5.1-62.9c-3.4 0-6.9 0.3-10 1.3-2.7 0.7-5.5 2.2-7.5 3.8-2.5 1.4-4.1 3.5-5.6 5.9-1.3 2.4-2.3 4.8-3 7.6h48.5c0-2.4-0.4-4.9-1.4-7.3-0.7-2-2.4-4.1-4.1-5.8-2.1-1.8-4.5-3.1-6.9-4.2-3.4-1-6.9-1.6-10-1.3zm558.7-9l36.5-44h8.2v27.8h31.3v24.1h-31.3v46.2c0 2.4 0.3 5.1 1 7.8q1.1 2.6 3.1 5.3c1.4 0.9 3.1 2 4.9 2.3 1.7 0.8 3.4 1 5.5 1 3.1 0 6.2-0.2 8.9-1.3 2.7-0.4 5.1-1.4 7.6-2.4v24.4q-4.2 2-9.4 3.1c-9.5 2-19.5 1.8-28.8-1.1-4.5-1.3-8.3-3.7-11.7-6.8-2.8-3.1-5.2-6.9-6.5-11-1.4-4.5-2.5-9.7-2.1-14.5v-52.2h-17.9zm122.8 7.1c4.1-6.8 9.3-12.7 15.8-17.1 5.5-4.2 12.4-6.2 19.6-5.9q3.1-0.5 6.2 0l3.7 0.7c0 0-0.6 6.1-4.7 25.4-2.1-0.3-4.2-0.6-6.2-0.3-4.9-0.3-9.3 0.7-13.8 2.4-4.1 1.7-7.5 4.4-10.3 7.9-2.8 3.4-5.2 7.6-6.5 12.1q-2.1 8.2-2.1 16.5v47.1h-27.5v-111.8h17.2zm176.3-23c7.6-0.4 14.9 1.3 21.3 4.4 5.9 3.1 10.7 7.2 14.9 12.7 3.8 5.6 6.9 11.8 8.5 18.3 1.7 6.9 2.8 14.1 2.8 21 0 7.2-1.1 14.4-3.1 21.3-1.7 6.6-4.8 12.4-8.9 17.5-4.2 5.3-9 9.3-14.8 12.1-6.2 3.1-13.4 4.5-20.3 4.5-6.9 0-13.5-1.1-19.6-3.5-5.2-2.4-9.9-5.5-13.7-10v58.2h-27.5v-156.5h16.1l10.7 13.4c4.1-4.2 9.2-7.6 15.1-10.3 5.8-2.2 12-3.5 18.2-3.1zm-7.5 24.4c-3.1-0.4-6.2 0.3-9 1.4-2.7 0.9-5.2 2.4-7.6 4-2 1.5-3.8 3.5-5.4 5.6-1.5 2-2.8 4.1-3.5 6.5v31.7c1.1 2 2.4 3.8 4.2 5.5 1.6 1.7 3.4 3.1 5.4 4.5q3.7 2 7.3 3.1c6.8 1.6 14 1.3 20.6-1.1 3.1-1.7 6.2-3.8 8.2-6.5 2.5-2.8 4.2-6.2 5.2-9.7 1-4.1 1.7-8.5 2-13 0-4.1-0.7-8.6-2-13.1q-1.6-5.7-5.2-10.4c-2.4-2.7-5.1-5.1-8.6-6.5-3.4-1.7-6.9-2.4-10.7-2.4zm-95.1-70.5c3.8 0 7.5 1.7 9.9 4.5 2.8 2.7 4.5 6.2 4.1 10 0 7.8-6.2 14.4-14 14.4-8 0-14.2-6.6-14.2-14.4 0-8 6.2-14.2 14.2-14.2zm-14.2 46.2h27.6v111.8h-27.6z"/>
	</g>
</svg>